<svg width="840" height="420" viewBox="0 0 840 420" fill="none" xmlns="http://www.w3.org/2000/svg">
  <defs>
    <linearGradient id="bg4" x1="0" y1="0" x2="840" y2="420" gradientUnits="userSpaceOnUse">
      <stop stop-color="#0A1120"/>
      <stop offset="1" stop-color="#173055"/>
    </linearGradient>
    <linearGradient id="rule" x1="0" y1="0" x2="1" y2="0">
      <stop stop-color="#22D3EE"/>
      <stop offset="1" stop-color="#34D399"/>
    </linearGradient>
  </defs>

  <rect width="840" height="420" rx="24" fill="url(#bg4)"/>

  <rect x="44" y="48" width="752" height="76" rx="14" fill="#10243F" stroke="#3B82F6"/>
  <text x="420" y="79" text-anchor="middle" fill="#EAF3FF" font-family="Arial" font-size="24" font-weight="700">Smart Scheduler</text>
  <text x="420" y="104" text-anchor="middle" fill="#9CC0E8" font-family="Arial" font-size="14">wlacz o 09:00 tylko gdy moc providera > 4.0 kW</text>

  <rect x="70" y="165" width="700" height="28" rx="14" fill="#0F1F34" stroke="#334155"/>
  <rect x="292" y="168" width="350" height="22" rx="11" fill="url(#rule)" opacity="0.85"/>

  <g fill="#A7C4E4" font-family="Arial" font-size="12">
    <text x="72" y="210">06:00</text>
    <text x="200" y="210">08:00</text>
    <text x="328" y="210">09:00</text>
    <text x="456" y="210">12:00</text>
    <text x="584" y="210">15:00</text>
    <text x="712" y="210">18:00</text>
  </g>

  <line x1="330" y1="160" x2="330" y2="250" stroke="#FBBF24" stroke-width="3"/>
  <circle cx="330" cy="160" r="7" fill="#FBBF24"/>

  <rect x="92" y="252" width="308" height="118" rx="14" fill="#0F253D" stroke="#38BDF8"/>
  <text x="246" y="286" text-anchor="middle" fill="#DFF6FF" font-family="Arial" font-size="18" font-weight="700">Warunek czasu</text>
  <text x="246" y="311" text-anchor="middle" fill="#93C5FD" font-family="Arial" font-size="14">okno aktywacji: 09:00 - 16:00</text>
  <text x="246" y="334" text-anchor="middle" fill="#93C5FD" font-family="Arial" font-size="14">dni robocze i weekendy</text>

  <rect x="440" y="252" width="308" height="118" rx="14" fill="#0E2D26" stroke="#34D399"/>
  <text x="594" y="286" text-anchor="middle" fill="#E4FFF5" font-family="Arial" font-size="18" font-weight="700">Warunek mocy</text>
  <text x="594" y="311" text-anchor="middle" fill="#86EFAC" font-family="Arial" font-size="14">provider power > 4.0 kW</text>
  <text x="594" y="334" text-anchor="middle" fill="#86EFAC" font-family="Arial" font-size="14">histereza: 0.4 kW</text>

  <text x="420" y="396" text-anchor="middle" fill="#E2F2EC" font-family="Arial" font-size="14">wynik: stycznik 12V zalacza urzadzenie tylko przy spelnionych obu warunkach</text>
</svg>
